<?xml version="1.0" encoding="UTF-8"?>
<svg fill="none" viewBox="0 0 360 360" xmlns="http://www.w3.org/2000/svg">
<circle cx="180" cy="180" r="180" fill="url(#d)"/>
<path d="m212.06 252.55 29.049-13.747 2.335-49.54-25.16 1.297-47.205 47.724 40.981 14.266z" fill="#FF2842"/>
<path d="m120.5 202.68-17.637-27.387 42.278-15.858 12.968 9.856-37.09 21.528-0.519 11.861z" fill="#FF2842"/>
<path d="m212.06 252.55 29.049-13.747 2.335-49.54-25.16 1.297-47.205 47.724 40.981 14.266z" fill="#000" fill-opacity=".38"/>
<path d="m120.5 202.68-17.637-27.387 42.278-15.858 12.968 9.856-37.09 21.528-0.519 11.861z" fill="#000" fill-opacity=".38"/>
<path d="m199.98 244.72-11.399 7.51-19.691-22.986 24.541-0.522 6.549 15.998z" fill="#626262"/>
<path d="m199.98 244.72-11.399 7.51-19.691-22.986 24.541-0.522 6.549 15.998z" fill="#000" fill-opacity=".38"/>
<path d="m173.24 262.75c-11.989-3.23-16.214-13.013-16.827-17.501l12.472-16.006 19.691 22.986-15.336 10.521z" fill="#626262"/>
<path d="m173.24 262.75c-11.989-3.23-16.214-13.013-16.827-17.501l12.472-16.006 19.691 22.986-15.336 10.521z" fill="#000" fill-opacity=".23"/>
<path d="m176.34 256.96-43.596 28.148 29.55-43.079 13.788-0.234 0.258 15.165z" fill="url(#c)"/>
<g filter="url(#f)">
<ellipse transform="rotate(-46.894 169.3 249.1)" cx="169.3" cy="249.1" rx="5.1874" ry="7.7711" fill="#DAF8FF"/>
</g>
<path d="m188.58 252.23-15.336 10.521c-1.383-13.89-11.794-17.455-16.827-17.501l12.472-16.006c15.323 5.424 19.512 17.584 19.691 22.986z" fill="#626262"/>
<path d="m146.54 198.49-11.088 6.263-16.862-22.647 22.874 1.078 5.076 15.306z" fill="#626262"/>
<path d="m146.54 198.49-11.088 6.263-16.862-22.647 22.874 1.078 5.076 15.306z" fill="#000" fill-opacity=".38"/>
<path d="m120.51 213.57c-10.953-3.769-14.262-13.144-14.547-17.36l12.627-14.101 16.862 22.647-14.942 8.814z" fill="#626262"/>
<path d="m120.51 213.57c-10.953-3.769-14.262-13.144-14.547-17.36l12.627-14.101 16.862 22.647-14.942 8.814z" fill="#000" fill-opacity=".23"/>
<path d="m123.76 208.37-42.367 23.42 30.246-38.211 12.848 0.661-0.727 14.13z" fill="url(#b)"/>
<g filter="url(#e)">
<ellipse transform="rotate(-42.978 117.71 200.61)" cx="117.71" cy="200.61" rx="4.8392" ry="7.2494" fill="#DAF8FF"/>
</g>
<path d="m135.45 204.75-14.942 8.814c-0.403-13.014-9.866-16.996-14.547-17.36l12.627-14.101c13.916 6.024 17.04 17.608 16.862 22.647z" fill="#626262"/>
<path d="m281.31 85.002-4.814 17.824-35.389 135.91-29.194 13.228-33.719-22.825-18.27 3.631c-3.797 3.625-7.897 6.919-12.253 9.848l-11.621 7.81c-8.825 5.932-19.068 9.412-29.68 10.083l-4.286 0.271v-9.337l-1.037-19.453c4.658-10.461 15.042-32.888 19.307-38.905-6.887-6.989-10.604-10.799-17.492-17.788l7.615-19.515 170.83-70.783z" fill="#fff"/>
<path d="m276.5 102.83 4.814-17.824-64.584 61.139-70.289 40.462-8.041 10.894c-17.637 17.816-31.211 42.525-35.793 52.652l-0.519 10.634 4.286-0.271c10.612-0.671 20.855-4.151 29.68-10.083l11.621-7.81c4.357-2.929 8.456-6.223 12.253-9.848l18.27-3.631 33.864 23.416 29.049-13.819 35.389-135.91z" fill="#000" fill-opacity=".05"/>
<path d="m241.25 238.8-29.192 13.751-33.712-23.343 40.722-71.445 57.59-54.907 4.652-17.861-22.844 9.4678-51.978 46.431-86.134 52.189-17.492-17.79 7.615-19.515 147.99-61.315 22.844-9.4678-4.652 17.861-35.408 135.94z" fill="#FF2842"/>
<path d="m164.33 165.66c-26.196 11.153-42.191 31.471-47.724 39.684 4.565-1.66 7.781-0.259 9.078 0.778l19.712-20.231 2.334 1.557-18.674 20.749c2.523 0.594 7.32 6.178 11.145 11.208 2.487 3.272 6.433 5.168 10.527 4.807 1.455-0.128 2.89-0.426 4.275-0.888l2.075-0.692c2.886-0.962 5.48-2.639 7.542-4.876l5.374-5.829c4.448-4.825 7.571-10.72 9.064-17.11l4.206-18.004c1.459-9.288-7.706-14.907-18.934-11.153z" fill="url(#a)"/>
<path d="m179.06 194.82 4.206-18.004c0.631-4.014-0.723-7.344-3.371-9.527-8.3 0.433-30.088 9.22-50.837 40.911 2.523 0.594 7.32 6.178 11.145 11.208 2.487 3.272 6.433 5.168 10.527 4.807 1.455-0.128 2.89-0.426 4.275-0.888l2.075-0.692c2.886-0.962 5.481-2.639 7.542-4.876l5.374-5.829c4.448-4.825 7.571-10.72 9.064-17.11z" fill="#000" fill-opacity=".03"/>
<path d="m89.115 274.27-2.8531-7.003-2.0749-1.038 3.1124 7.522 1.8156 0.519z" fill="#FF2842"/>
<path d="m89.115 274.27-2.8531-7.003 16.341-16.341s-0.519 3.632-0.519 9.856l-12.969 13.488z" fill="#FF2842"/>
<path d="m89.115 274.27-2.8531-7.003 16.341-16.341s-0.519 3.632-0.519 9.856l-12.969 13.488z" fill="#000" fill-opacity=".15"/>
<path d="m102.6 251-16.341 16.34-5.1874-12.19 66.658-67.696c-27.234 29.568-41.413 53.084-45.13 63.546z" fill="#fff"/>
<path d="m102.6 251-16.341 16.34-5.1874-12.19 66.658-67.696c-27.234 29.568-41.413 53.084-45.13 63.546z" fill="#000" fill-opacity=".15"/>
<path d="m147.73 187.45-66.658 67.696-2.075-1.297 66.399-67.956 2.334 1.557z" fill="#fff"/>
<path d="m147.73 187.45-66.658 67.696-2.075-1.297 66.399-67.956 2.334 1.557z" fill="#000" fill-opacity=".08"/>
<path d="m86.262 267.34-5.1874-12.191-2.075-1.297 5.1874 12.45 2.075 1.038z" fill="#F2F2F2"/>
<defs>
<filter id="f" x="158.61" y="238.58" width="21.382" height="21.046" color-interpolation-filters="sRGB" filterUnits="userSpaceOnUse">
<feFlood flood-opacity="0" result="BackgroundImageFix"/>
<feColorMatrix in="SourceAlpha" values="0 0 0 0 0 0 0 0 0 0 0 0 0 0 0 0 0 0 127 0"/>
<feOffset/>
<feGaussianBlur stdDeviation="2"/>
<feColorMatrix values="0 0 0 0 1 0 0 0 0 1 0 0 0 0 1 0 0 0 1 0"/>
<feBlend in2="BackgroundImageFix" result="effect1_dropShadow"/>
<feBlend in="SourceGraphic" in2="effect1_dropShadow" result="shape"/>
</filter>
<filter id="e" x="107.63" y="190.36" width="20.16" height="20.494" color-interpolation-filters="sRGB" filterUnits="userSpaceOnUse">
<feFlood flood-opacity="0" result="BackgroundImageFix"/>
<feColorMatrix in="SourceAlpha" values="0 0 0 0 0 0 0 0 0 0 0 0 0 0 0 0 0 0 127 0"/>
<feOffset/>
<feGaussianBlur stdDeviation="2"/>
<feColorMatrix values="0 0 0 0 1 0 0 0 0 1 0 0 0 0 1 0 0 0 1 0"/>
<feBlend in2="BackgroundImageFix" result="effect1_dropShadow"/>
<feBlend in="SourceGraphic" in2="effect1_dropShadow" result="shape"/>
</filter>
<linearGradient id="d" x1="-6.695e-6" x2="360" y1="29.504" y2="315.88" gradientUnits="userSpaceOnUse">
<stop stop-color="#0053B3" offset="0"/>
<stop stop-color="#12017C" offset=".9998"/>
<stop stop-color="#004699" offset=".9999"/>
</linearGradient>
<linearGradient id="c" x1="183" x2="133.18" y1="235.8" y2="284.88" gradientUnits="userSpaceOnUse">
<stop stop-color="#6EE5FF" offset=".26562"/>
<stop stop-color="#C9F5FF" stop-opacity="0" offset="1"/>
</linearGradient>
<linearGradient id="b" x1="131.31" x2="81.814" y1="189.1" y2="231.61" gradientUnits="userSpaceOnUse">
<stop stop-color="#6EE5FF" offset=".26562"/>
<stop stop-color="#C9F5FF" stop-opacity="0" offset="1"/>
</linearGradient>
<radialGradient id="a" cx="0" cy="0" r="1" gradientTransform="translate(150.07 194.38) rotate(90) scale(42.537 47.947)" gradientUnits="userSpaceOnUse">
<stop stop-color="#CEF6FF" offset="0"/>
<stop stop-color="#1BCBF1" offset="1"/>
</radialGradient>
</defs>
</svg>
